<?xml version="1.0" encoding="UTF-8" standalone="no"?>
<!-- Generator: Adobe Illustrator 17.0.0, SVG Export Plug-In . SVG Version: 6.00 Build 0)  -->

<svg
   xmlns:dc="http://purl.org/dc/elements/1.1/"
   xmlns:cc="http://creativecommons.org/ns#"
   xmlns:rdf="http://www.w3.org/1999/02/22-rdf-syntax-ns#"
   xmlns:svg="http://www.w3.org/2000/svg"
   xmlns="http://www.w3.org/2000/svg"
   xmlns:xlink="http://www.w3.org/1999/xlink"
   xmlns:sodipodi="http://sodipodi.sourceforge.net/DTD/sodipodi-0.dtd"
   xmlns:inkscape="http://www.inkscape.org/namespaces/inkscape"
   version="1.1"
   id="Слой_1"
   x="0px"
   y="0px"
   width="90px"
   height="90px"
   viewBox="0 0 90 90"
   enable-background="new 0 0 90 90"
   xml:space="preserve"
   inkscape:version="0.48.5 r10040"
   sodipodi:docname="point_to_location.svg"
   inkscape:export-filename="/home/bishop/tmp/point2location.png"
   inkscape:export-xdpi="512"
   inkscape:export-ydpi="512"><metadata
     id="metadata23"><rdf:RDF><cc:Work
         rdf:about=""><dc:format>image/svg+xml</dc:format><dc:type
           rdf:resource="http://purl.org/dc/dcmitype/StillImage" /><dc:title></dc:title></cc:Work></rdf:RDF></metadata><defs
     id="defs21"><clipPath
       clipPathUnits="userSpaceOnUse"
       id="clipPath942"><path
         inkscape:connector-curvature="0"
         d="M 0,96 96,96 96,0 0,0 0,96 z"
         id="path944" /></clipPath><clipPath
       clipPathUnits="userSpaceOnUse"
       id="clipPath252"><path
         inkscape:connector-curvature="0"
         d="M 0,96 96,96 96,0 0,0 0,96 z"
         id="path254" /></clipPath><clipPath
       clipPathUnits="userSpaceOnUse"
       id="clipPath1128"><path
         inkscape:connector-curvature="0"
         d="M 0,96 96,96 96,0 0,0 0,96 z"
         id="path1130" /></clipPath></defs><sodipodi:namedview
     pagecolor="#ffffff"
     bordercolor="#666666"
     borderopacity="1"
     objecttolerance="10"
     gridtolerance="10"
     guidetolerance="10"
     inkscape:pageopacity="0"
     inkscape:pageshadow="2"
     inkscape:window-width="1631"
     inkscape:window-height="1026"
     id="namedview19"
     showgrid="false"
     inkscape:zoom="2.6222222"
     inkscape:cx="-31.080801"
     inkscape:cy="65.581373"
     inkscape:window-x="49"
     inkscape:window-y="24"
     inkscape:window-maximized="1"
     inkscape:current-layer="g3099" /><g
     id="g11"><defs
       id="defs13"><rect
         id="SVGID_1_"
         x="0"
         y="0"
         width="90"
         height="90" /></defs><clipPath
       id="SVGID_2_"><use
         xlink:href="#SVGID_1_"
         overflow="visible"
         id="use17" /></clipPath></g><g
     id="g3099"
     transform="matrix(0.78239613,0,0,0.78239613,31.825587,30.608079)"><path
       transform="matrix(1.3360105,0,0,1.3360105,-49.810986,-30.152993)"
       d="m 62.021653,36.337788 a 12.134671,12.134671 0 1 1 -24.269342,0 12.134671,12.134671 0 1 1 24.269342,0 z"
       sodipodi:ry="12.134671"
       sodipodi:rx="12.134671"
       sodipodi:cy="36.337788"
       sodipodi:cx="49.886982"
       id="path3005-2"
       style="fill:#2e3436;fill-opacity:1;stroke:none"
       sodipodi:type="arc" /><g
       transform="matrix(1.5976562,0,0,-1.5976562,-58.873551,95.082039)"
       id="g1124"><g
         clip-path="url(#clipPath1128)"
         id="g1126"><g
           transform="translate(70.501,28.8594)"
           id="g1136"><path
             inkscape:connector-curvature="0"
             id="path1138"
             style="fill:#333333;fill-opacity:1;fill-rule:nonzero;stroke:none"
             d="m 0,0 0,13.301 -4.161,0 0,-13.301 -13.103,0 0,-4.162 13.103,0 0,-13.297 4.161,0 0,13.297 13.104,0 0,4.162 L 0,0 z" /></g></g></g></g></svg>