<?xml version="1.0" encoding="UTF-8" standalone="no"?>
<!-- Generator: Adobe Illustrator 17.0.0, SVG Export Plug-In . SVG Version: 6.00 Build 0)  -->

<svg
   xmlns:dc="http://purl.org/dc/elements/1.1/"
   xmlns:cc="http://creativecommons.org/ns#"
   xmlns:rdf="http://www.w3.org/1999/02/22-rdf-syntax-ns#"
   xmlns:svg="http://www.w3.org/2000/svg"
   xmlns="http://www.w3.org/2000/svg"
   xmlns:xlink="http://www.w3.org/1999/xlink"
   xmlns:sodipodi="http://sodipodi.sourceforge.net/DTD/sodipodi-0.dtd"
   xmlns:inkscape="http://www.inkscape.org/namespaces/inkscape"
   version="1.1"
   id="Слой_1"
   x="0px"
   y="0px"
   width="90px"
   height="90px"
   viewBox="0 0 90 90"
   enable-background="new 0 0 90 90"
   xml:space="preserve"
   inkscape:version="0.48.5 r10040"
   sodipodi:docname="appIcon.svg"
   inkscape:export-filename="/home/bishop/work/projects/docs/nextgismobile-docs/source/_static/mobileappIcon.png"
   inkscape:export-xdpi="512"
   inkscape:export-ydpi="512"><metadata
     id="metadata23"><rdf:RDF><cc:Work
         rdf:about=""><dc:format>image/svg+xml</dc:format><dc:type
           rdf:resource="http://purl.org/dc/dcmitype/StillImage" /><dc:title></dc:title></cc:Work></rdf:RDF></metadata><defs
     id="defs21" /><sodipodi:namedview
     pagecolor="#ffffff"
     bordercolor="#666666"
     borderopacity="1"
     objecttolerance="10"
     gridtolerance="10"
     guidetolerance="10"
     inkscape:pageopacity="0"
     inkscape:pageshadow="2"
     inkscape:window-width="1871"
     inkscape:window-height="1056"
     id="namedview19"
     showgrid="false"
     inkscape:zoom="2.6222222"
     inkscape:cx="-39.160169"
     inkscape:cy="49.062499"
     inkscape:window-x="49"
     inkscape:window-y="24"
     inkscape:window-maximized="1"
     inkscape:current-layer="Слой_1" /><path
     fill="#31B7DA"
     d="M90,68.472c0,2.761-1.754,5.881-5,7.117s-31.5,12.39-35.333,13.528s-5.343,1.217-8.501,0  C38.008,87.9,7.701,76.954,5.057,75.588s-5-4.355-5-7.117V5c0-2.761,2.239-5,5-5H85c2.761,0,5,2.239,5,5V68.472z"
     id="path3" /><g
     id="g11"><defs
       id="defs13"><rect
         id="SVGID_1_"
         x="0"
         y="0"
         width="90"
         height="90" /></defs><clipPath
       id="SVGID_2_"><use
         xlink:href="#SVGID_1_"
         overflow="visible"
         id="use17" /></clipPath></g><path
     style="fill:#ffffff;fill-opacity:1;stroke:none"
     d="m 45.196304,76.124765 c 0,0 -12.855747,-10.695899 -17.654591,-17.431114 C 21.172653,49.754621 19.211099,44.147978 19.161371,36.122597 19.061258,19.966261 32.790999,9.4888063 45.196304,9.5289813 57.523698,9.5689091 70.949121,19.918327 70.896016,36.122597 70.868551,44.502942 68.49895,49.612927 61.510033,58.693651 56.656267,65.000175 45.196304,76.124765 45.196304,76.124765 z"
     id="path3008"
     inkscape:connector-curvature="0"
     sodipodi:nodetypes="csssssc" /><path
     sodipodi:type="arc"
     style="fill:#31b7da;fill-opacity:1;stroke:none"
     id="path3005"
     sodipodi:cx="49.886982"
     sodipodi:cy="36.337788"
     sodipodi:rx="12.134671"
     sodipodi:ry="12.134671"
     d="m 62.021653,36.337788 a 12.134671,12.134671 0 1 1 -24.269342,0 12.134671,12.134671 0 1 1 24.269342,0 z"
     transform="matrix(1.2,0,0,1.2,-14.835878,-7.8068764)" /></svg>