<?xml version="1.0" encoding="UTF-8" standalone="no"?>
<!-- Generator: Adobe Illustrator 17.0.0, SVG Export Plug-In . SVG Version: 6.00 Build 0)  -->

<svg
   xmlns:dc="http://purl.org/dc/elements/1.1/"
   xmlns:cc="http://creativecommons.org/ns#"
   xmlns:rdf="http://www.w3.org/1999/02/22-rdf-syntax-ns#"
   xmlns:svg="http://www.w3.org/2000/svg"
   xmlns="http://www.w3.org/2000/svg"
   xmlns:xlink="http://www.w3.org/1999/xlink"
   xmlns:sodipodi="http://sodipodi.sourceforge.net/DTD/sodipodi-0.dtd"
   xmlns:inkscape="http://www.inkscape.org/namespaces/inkscape"
   version="1.1"
   id="Слой_1"
   x="0px"
   y="0px"
   width="90px"
   height="90px"
   viewBox="0 0 90 90"
   enable-background="new 0 0 90 90"
   xml:space="preserve"
   inkscape:version="0.48.5 r10040"
   sodipodi:docname="add_points.svg"
   inkscape:export-filename="/home/bishop/tmp/add_points.png"
   inkscape:export-xdpi="512"
   inkscape:export-ydpi="512"><metadata
     id="metadata23"><rdf:RDF><cc:Work
         rdf:about=""><dc:format>image/svg+xml</dc:format><dc:type
           rdf:resource="http://purl.org/dc/dcmitype/StillImage" /><dc:title></dc:title></cc:Work></rdf:RDF></metadata><defs
     id="defs21"><clipPath
       clipPathUnits="userSpaceOnUse"
       id="clipPath942"><path
         inkscape:connector-curvature="0"
         d="M 0,96 96,96 96,0 0,0 0,96 z"
         id="path944" /></clipPath><clipPath
       clipPathUnits="userSpaceOnUse"
       id="clipPath252"><path
         inkscape:connector-curvature="0"
         d="M 0,96 96,96 96,0 0,0 0,96 z"
         id="path254" /></clipPath><clipPath
       clipPathUnits="userSpaceOnUse"
       id="clipPath1128"><path
         inkscape:connector-curvature="0"
         d="M 0,96 96,96 96,0 0,0 0,96 z"
         id="path1130" /></clipPath></defs><sodipodi:namedview
     pagecolor="#ffffff"
     bordercolor="#666666"
     borderopacity="1"
     objecttolerance="10"
     gridtolerance="10"
     guidetolerance="10"
     inkscape:pageopacity="0"
     inkscape:pageshadow="2"
     inkscape:window-width="1631"
     inkscape:window-height="1026"
     id="namedview19"
     showgrid="false"
     inkscape:zoom="3.7083822"
     inkscape:cx="14.59067"
     inkscape:cy="53.068018"
     inkscape:window-x="49"
     inkscape:window-y="24"
     inkscape:window-maximized="1"
     inkscape:current-layer="g3099" /><g
     id="g11"><defs
       id="defs13"><rect
         id="SVGID_1_"
         x="0"
         y="0"
         width="90"
         height="90" /></defs><clipPath
       id="SVGID_2_"><use
         xlink:href="#SVGID_1_"
         overflow="visible"
         id="use17" /></clipPath></g><g
     id="g3099"
     transform="matrix(0.78239613,0,0,0.78239613,31.825587,30.608079)"><path
       transform="matrix(1.3360105,0,0,1.3360105,-77.514531,-16.43768)"
       d="m 62.021653,36.337788 a 12.134671,12.134671 0 1 1 -24.269342,0 12.134671,12.134671 0 1 1 24.269342,0 z"
       sodipodi:ry="12.134671"
       sodipodi:rx="12.134671"
       sodipodi:cy="36.337788"
       sodipodi:cx="49.886982"
       id="path3005-2"
       style="fill:#2e3436;fill-opacity:1;stroke:none"
       sodipodi:type="arc" /><path
       transform="matrix(1.3360104,0,0,1.3360104,-90.754305,-71.096314)"
       d="m 62.021653,36.337788 a 12.134671,12.134671 0 1 1 -24.269342,0 12.134671,12.134671 0 1 1 24.269342,0 z"
       sodipodi:ry="12.134671"
       sodipodi:rx="12.134671"
       sodipodi:cy="36.337788"
       sodipodi:cx="49.886982"
       id="path3005-2-4"
       style="fill:#2e3436;fill-opacity:1;stroke:none"
       sodipodi:type="arc" /><path
       transform="matrix(1.3360104,0,0,1.3360104,-36.297563,-56.477901)"
       d="m 62.021653,36.337788 a 12.134671,12.134671 0 1 1 -24.269342,0 12.134671,12.134671 0 1 1 24.269342,0 z"
       sodipodi:ry="12.134671"
       sodipodi:rx="12.134671"
       sodipodi:cy="36.337788"
       sodipodi:cx="49.886982"
       id="path3005-2-0"
       style="fill:#2e3436;fill-opacity:1;stroke:none"
       sodipodi:type="arc" /><g
       id="g524"
       transform="matrix(1.5976562,0,0,-1.5976562,73.332386,44.496567)"><path
         d="m 0,0 0.24,0.244 -2.894,2.91 -8.28,-8.304 -8.033,8.064 -0.244,0.24 -2.9,-2.91 8.281,-8.299 -8.039,-8.06 -0.242,-0.242 2.9,-2.911 8.277,8.305 8.036,-8.06 0.244,-0.245 2.898,2.911 -8.279,8.302 L 0,0 z"
         style="fill:#333333;fill-opacity:1;fill-rule:nonzero;stroke:none"
         id="path526"
         inkscape:connector-curvature="0" /></g></g></svg>