<?xml version="1.0" encoding="UTF-8" standalone="no"?>
<!-- Generator: Adobe Illustrator 17.0.0, SVG Export Plug-In . SVG Version: 6.00 Build 0)  -->

<svg
   xmlns:dc="http://purl.org/dc/elements/1.1/"
   xmlns:cc="http://creativecommons.org/ns#"
   xmlns:rdf="http://www.w3.org/1999/02/22-rdf-syntax-ns#"
   xmlns:svg="http://www.w3.org/2000/svg"
   xmlns="http://www.w3.org/2000/svg"
   xmlns:xlink="http://www.w3.org/1999/xlink"
   xmlns:sodipodi="http://sodipodi.sourceforge.net/DTD/sodipodi-0.dtd"
   xmlns:inkscape="http://www.inkscape.org/namespaces/inkscape"
   version="1.1"
   id="Слой_1"
   x="0px"
   y="0px"
   width="90px"
   height="90px"
   viewBox="0 0 90 90"
   enable-background="new 0 0 90 90"
   xml:space="preserve"
   inkscape:version="0.48.5 r10040"
   sodipodi:docname="ngw.svg"
   inkscape:export-filename="/home/bishop/work/projects/android/art/ngwicon.png"
   inkscape:export-xdpi="511.99786"
   inkscape:export-ydpi="511.99786"><metadata
     id="metadata23"><rdf:RDF><cc:Work
         rdf:about=""><dc:format>image/svg+xml</dc:format><dc:type
           rdf:resource="http://purl.org/dc/dcmitype/StillImage" /><dc:title></dc:title></cc:Work></rdf:RDF></metadata><defs
     id="defs21" /><sodipodi:namedview
     pagecolor="#ffffff"
     bordercolor="#666666"
     borderopacity="1"
     objecttolerance="10"
     gridtolerance="10"
     guidetolerance="10"
     inkscape:pageopacity="0"
     inkscape:pageshadow="2"
     inkscape:window-width="1631"
     inkscape:window-height="1026"
     id="namedview19"
     showgrid="false"
     inkscape:zoom="2.6222222"
     inkscape:cx="-97.507626"
     inkscape:cy="49.062499"
     inkscape:window-x="49"
     inkscape:window-y="24"
     inkscape:window-maximized="1"
     inkscape:current-layer="Слой_1" /><path
     d="M90,68.472c0,2.761-1.754,5.881-5,7.117s-31.5,12.39-35.333,13.528s-5.343,1.217-8.501,0  C38.008,87.9,7.701,76.954,5.057,75.588s-5-4.355-5-7.117V5c0-2.761,2.239-5,5-5H85c2.761,0,5,2.239,5,5V68.472z"
     id="path3"
     fill="#31B7DA" /><g
     id="g11"><defs
       id="defs13"><rect
         id="SVGID_1_"
         x="0"
         y="0"
         width="90"
         height="90" /></defs><clipPath
       id="SVGID_2_"><use
         xlink:href="#SVGID_1_"
         overflow="visible"
         id="use17" /></clipPath></g><path
     style="fill:#ffffff"
     inkscape:connector-curvature="0"
     id="world"
     d="m 45.0285,7.7627117 c -18.46068,0 -33.423729,14.9630483 -33.423729,33.4237293 0,18.46068 14.963049,33.423729 33.423729,33.423729 18.46068,0 33.423729,-14.963049 33.423729,-33.423729 C 78.452229,22.72576 63.48918,7.7627117 45.0285,7.7627117 z M 74.08558,40.108256 H 61.155988 c -0.1186,-4.776359 -0.96821,-9.339237 -2.475512,-13.516125 2.911099,-1.214036 5.602248,-2.829157 8.056197,-4.737544 4.362335,4.897115 7.090143,11.256249 7.348907,18.253669 z M 43.836027,70.237052 c -3.583886,-2.984415 -6.589865,-6.859412 -8.789362,-11.359755 2.822688,-0.881955 5.813572,-1.364982 8.90365,-1.464175 v 12.828243 c -0.03881,0 -0.07547,-0.0022 -0.114288,-0.0043 z M 46.21666,12.13583 c 4.066913,3.3855 7.385565,7.920345 9.630346,13.209919 -3.074983,1.050152 -6.341883,1.660405 -9.742478,1.768224 V 12.129361 c 0.04097,0.0022 0.07547,0.0043 0.112132,0.0065 z m 3.592511,0.366583 c 5.95158,0.989773 11.290752,3.769333 15.448232,7.793119 -2.257719,1.731565 -4.724606,3.197896 -7.392035,4.308426 -1.962296,-4.651289 -4.71598,-8.763486 -8.056197,-12.101545 z m -5.858856,-0.373052 v 14.984612 c -3.400595,-0.109975 -6.669651,-0.718072 -9.742478,-1.768224 2.244781,-5.289574 5.563434,-9.824419 9.630347,-13.209919 0.03881,-0.0022 0.07332,-0.0043 0.112131,-0.0065 z m -11.76084,12.476754 c -2.663116,-1.110531 -5.132159,-2.576862 -7.389878,-4.308427 4.155324,-4.023785 9.496651,-6.803345 15.448231,-7.793119 -3.342372,3.335903 -6.0939,7.4481 -8.058353,12.101546 z m 1.205411,2.727807 c 3.325122,1.153658 6.868037,1.826445 10.555429,1.938577 V 40.108256 H 31.057381 c 0.116444,-4.515438 0.916457,-8.830334 2.337505,-12.774334 z m 10.555429,14.930703 v 12.992127 c -3.400595,0.103506 -6.689058,0.659849 -9.787762,1.658249 -1.867416,-4.446435 -2.969321,-9.399616 -3.105172,-14.650376 h 12.892934 z m -3.702487,27.605844 c -5.332702,-0.886268 -10.175908,-3.208678 -14.113439,-6.58124 2.124024,-1.4728 4.420558,-2.719182 6.874507,-3.665828 1.880354,3.898716 4.340772,7.359689 7.238932,10.247068 z m 5.858857,0.373052 V 57.415278 c 3.087921,0.09919 6.080962,0.58222 8.90365,1.464175 -2.201654,4.500344 -5.205476,8.37534 -8.789363,11.359755 -0.03666,0 -0.07547,0.0022 -0.114287,0.0043 z m 10.941419,-10.62012 c 2.451792,0.946646 4.74617,2.195184 6.874506,3.665828 -3.93753,3.370406 -8.780737,5.694972 -14.113439,6.58124 2.898161,-2.887379 5.356422,-6.348352 7.238933,-10.247068 z m -1.153658,-2.7084 c -3.100859,-0.9984 -6.389323,-1.554743 -9.787761,-1.658249 V 42.264625 h 12.892934 c -0.135852,5.25076 -1.239913,10.203941 -3.105173,14.650376 z M 46.106685,40.108256 V 29.272499 c 3.685235,-0.112132 7.228151,-0.782763 10.555429,-1.93642 1.418891,3.944 2.218904,8.258895 2.337505,12.774333 H 46.106685 z M 23.322483,21.854587 c 2.453949,1.908387 5.145098,3.523508 8.054041,4.737544 -1.507303,4.176888 -2.356912,8.739766 -2.475512,13.516125 H 15.971419 c 0.258765,-6.99742 2.986572,-13.356554 7.351064,-18.253669 z m -7.351064,20.410038 h 12.929593 c 0.133694,5.509525 1.285196,10.712845 3.241023,15.39001 -2.73212,1.065247 -5.278793,2.484138 -7.629236,4.16395 -5.063155,-5.039436 -8.258895,-11.929037 -8.54138,-19.55396 z M 65.5442,61.816429 c -2.350443,-1.677656 -4.897115,-3.098703 -7.631392,-4.16395 1.957984,-4.677166 3.107329,-9.880486 3.24318,-15.39001 H 74.08558 c -0.282484,7.627079 -3.48038,14.51668 -8.54138,19.55396 z" /></svg>