<?xml version="1.0" encoding="UTF-8" standalone="no"?>
<!-- Generator: Adobe Illustrator 17.0.0, SVG Export Plug-In . SVG Version: 6.00 Build 0)  -->

<svg
   xmlns:dc="http://purl.org/dc/elements/1.1/"
   xmlns:cc="http://creativecommons.org/ns#"
   xmlns:rdf="http://www.w3.org/1999/02/22-rdf-syntax-ns#"
   xmlns:svg="http://www.w3.org/2000/svg"
   xmlns="http://www.w3.org/2000/svg"
   xmlns:xlink="http://www.w3.org/1999/xlink"
   xmlns:sodipodi="http://sodipodi.sourceforge.net/DTD/sodipodi-0.dtd"
   xmlns:inkscape="http://www.inkscape.org/namespaces/inkscape"
   version="1.1"
   id="Слой_1"
   x="0px"
   y="0px"
   width="90px"
   height="90px"
   viewBox="0 0 90 90"
   enable-background="new 0 0 90 90"
   xml:space="preserve"
   inkscape:version="0.48.5 r10040"
   sodipodi:docname="point_selector.svg"
   inkscape:export-filename="/home/bishop/tmp/selector.png"
   inkscape:export-xdpi="512"
   inkscape:export-ydpi="512"><metadata
     id="metadata23"><rdf:RDF><cc:Work
         rdf:about=""><dc:format>image/svg+xml</dc:format><dc:type
           rdf:resource="http://purl.org/dc/dcmitype/StillImage" /><dc:title></dc:title></cc:Work></rdf:RDF></metadata><defs
     id="defs21"><clipPath
       clipPathUnits="userSpaceOnUse"
       id="clipPath942"><path
         inkscape:connector-curvature="0"
         d="M 0,96 96,96 96,0 0,0 0,96 z"
         id="path944" /></clipPath><clipPath
       clipPathUnits="userSpaceOnUse"
       id="clipPath252"><path
         inkscape:connector-curvature="0"
         d="M 0,96 96,96 96,0 0,0 0,96 z"
         id="path254" /></clipPath><clipPath
       clipPathUnits="userSpaceOnUse"
       id="clipPath1128"><path
         inkscape:connector-curvature="0"
         d="M 0,96 96,96 96,0 0,0 0,96 z"
         id="path1130" /></clipPath><clipPath
       clipPathUnits="userSpaceOnUse"
       id="clipPath344"><path
         inkscape:connector-curvature="0"
         d="M 0,96 96,96 96,0 0,0 0,96 z"
         id="path346" /></clipPath><clipPath
       clipPathUnits="userSpaceOnUse"
       id="clipPath544"><path
         inkscape:connector-curvature="0"
         d="M 0,96 96,96 96,0 0,0 0,96 z"
         id="path546" /></clipPath><clipPath
       clipPathUnits="userSpaceOnUse"
       id="clipPath544-6"><path
         inkscape:connector-curvature="0"
         d="M 0,96 96,96 96,0 0,0 0,96 z"
         id="path546-9" /></clipPath></defs><sodipodi:namedview
     pagecolor="#ffffff"
     bordercolor="#666666"
     borderopacity="1"
     objecttolerance="10"
     gridtolerance="10"
     guidetolerance="10"
     inkscape:pageopacity="0"
     inkscape:pageshadow="2"
     inkscape:window-width="1871"
     inkscape:window-height="1056"
     id="namedview19"
     showgrid="false"
     inkscape:zoom="3.3273303"
     inkscape:cx="-46.43822"
     inkscape:cy="88.406618"
     inkscape:window-x="49"
     inkscape:window-y="24"
     inkscape:window-maximized="1"
     inkscape:current-layer="g348" /><g
     id="g11"><defs
       id="defs13"><rect
         id="SVGID_1_"
         x="0"
         y="0"
         width="90"
         height="90" /></defs><clipPath
       id="SVGID_2_"><use
         xlink:href="#SVGID_1_"
         overflow="visible"
         id="use17" /></clipPath></g><g
     id="g3099"
     transform="matrix(0.78239613,0,0,0.78239613,31.825587,30.608079)"><g
       transform="matrix(1.5976562,0,0,-1.5976562,-59.848153,95.08249)"
       id="g340"><g
         clip-path="url(#clipPath344)"
         id="g342"><g
           transform="translate(21.7905,45.7842)"
           id="g348"><path
             style="fill:#01579b;fill-opacity:1;stroke:#03a9f4;stroke-width:0.98487031;stroke-opacity:1"
             d="m 54.593899,-25.291455 c 8.716831,9.157477 10.556425,26.6510638 -1.505648,37.86334 -5.991629,5.569506 -11.540602,8.043428 -22.635592,9.572018 -8.35965,1.151733 -39.2975535,15.101825 -39.2975535,15.101825 0,0 14.2304267,-32.2523095 15.5124885,-40.2518712 1.8460282,-11.5185248 3.983761,-16.8627028 10.184804,-22.7373338 11.990357,-11.359214 29.079413,-8.647942 37.741501,0.452022 z m -2.030828,1.996523 c -7.876111,-8.696965 -25.00752,-9.517206 -33.662664,-0.702075 -8.492705,8.649692 -8.889654,24.68162125 -0.500544,33.2501547 7.971262,8.1417493 20.715179,11.5065823 32.912497,0.8102883 9.467606,-8.3025049 9.849966,-23.862892 1.250711,-33.358368 z"
             id="path3008"
             inkscape:connector-curvature="0"
             sodipodi:nodetypes="ssscssssssss" /></g></g></g></g></svg>