<?xml version="1.0" encoding="UTF-8" standalone="no"?>
<!-- Generator: Adobe Illustrator 17.0.0, SVG Export Plug-In . SVG Version: 6.00 Build 0)  -->

<svg
   xmlns:dc="http://purl.org/dc/elements/1.1/"
   xmlns:cc="http://creativecommons.org/ns#"
   xmlns:rdf="http://www.w3.org/1999/02/22-rdf-syntax-ns#"
   xmlns:svg="http://www.w3.org/2000/svg"
   xmlns="http://www.w3.org/2000/svg"
   xmlns:xlink="http://www.w3.org/1999/xlink"
   xmlns:sodipodi="http://sodipodi.sourceforge.net/DTD/sodipodi-0.dtd"
   xmlns:inkscape="http://www.inkscape.org/namespaces/inkscape"
   version="1.1"
   id="Слой_1"
   x="0px"
   y="0px"
   width="90px"
   height="90px"
   viewBox="0 0 90 90"
   enable-background="new 0 0 90 90"
   xml:space="preserve"
   inkscape:version="0.48.5 r10040"
   sodipodi:docname="point_to_location.svg"
   inkscape:export-filename="/home/bishop/tmp/point2location.png"
   inkscape:export-xdpi="512"
   inkscape:export-ydpi="512"><metadata
     id="metadata23"><rdf:RDF><cc:Work
         rdf:about=""><dc:format>image/svg+xml</dc:format><dc:type
           rdf:resource="http://purl.org/dc/dcmitype/StillImage" /><dc:title /></cc:Work></rdf:RDF></metadata><defs
     id="defs21"><clipPath
       clipPathUnits="userSpaceOnUse"
       id="clipPath942"><path
         inkscape:connector-curvature="0"
         d="M 0,96 96,96 96,0 0,0 0,96 z"
         id="path944" /></clipPath><clipPath
       clipPathUnits="userSpaceOnUse"
       id="clipPath252"><path
         inkscape:connector-curvature="0"
         d="M 0,96 96,96 96,0 0,0 0,96 z"
         id="path254" /></clipPath></defs><sodipodi:namedview
     pagecolor="#ffffff"
     bordercolor="#666666"
     borderopacity="1"
     objecttolerance="10"
     gridtolerance="10"
     guidetolerance="10"
     inkscape:pageopacity="0"
     inkscape:pageshadow="2"
     inkscape:window-width="1631"
     inkscape:window-height="1026"
     id="namedview19"
     showgrid="false"
     inkscape:zoom="2.6222222"
     inkscape:cx="-11.250002"
     inkscape:cy="64.459387"
     inkscape:window-x="49"
     inkscape:window-y="24"
     inkscape:window-maximized="1"
     inkscape:current-layer="g3099" /><g
     id="g11"><defs
       id="defs13"><rect
         id="SVGID_1_"
         x="0"
         y="0"
         width="90"
         height="90" /></defs><clipPath
       id="SVGID_2_"><use
         xlink:href="#SVGID_1_"
         overflow="visible"
         id="use17" /></clipPath></g><g
     id="g3099"
     transform="matrix(0.78239613,0,0,0.78239613,31.825587,30.608079)"><path
       transform="matrix(1.3360105,0,0,1.3360105,-91.05355,-70.908138)"
       d="m 62.021653,36.337788 a 12.134671,12.134671 0 1 1 -24.269342,0 12.134671,12.134671 0 1 1 24.269342,0 z"
       sodipodi:ry="12.134671"
       sodipodi:rx="12.134671"
       sodipodi:cy="36.337788"
       sodipodi:cx="49.886982"
       id="path3005-2"
       style="fill:#2e3436;fill-opacity:1;stroke:none"
       sodipodi:type="arc" /><g
       transform="matrix(1.4206716,0,0,-1.4206716,-22.017752,97.043619)"
       id="g938"
       style="fill:#2e3436;fill-opacity:1"><g
         clip-path="url(#clipPath942)"
         id="g940"
         style="fill:#2e3436;fill-opacity:1"><g
           transform="translate(65.3389,71.4639)"
           id="g946"
           style="fill:#2e3436;fill-opacity:1"><path
             inkscape:connector-curvature="0"
             id="path948"
             style="fill:#2e3436;fill-opacity:1;fill-rule:evenodd;stroke:none"
             d="m 0,0 c -2.334,4.063 -6.045,7.188 -10.961,8.836 -0.854,0.291 -1.729,0.521 -2.647,0.687 -0.958,0.168 -2,0.291 -3.083,0.355 l -0.646,0 -0.647,0 C -19.068,9.814 -20.11,9.691 -21.068,9.523 -21.986,9.357 -22.861,9.127 -23.715,8.836 -28.613,7.188 -32.342,4.063 -34.676,0 c -1.605,-2.792 -2.666,-6.271 -2.419,-10.525 0.107,-1.957 0.628,-3.707 1.23,-5.291 0.627,-1.563 1.356,-2.98 2.21,-4.334 3.252,-5.296 7.668,-10.005 10.169,-16.07 1.272,-3.082 2.397,-6.293 3.356,-9.709 0.935,-3.375 1.791,-6.961 2.146,-10.877 l 0.647,0 0.646,0 c 0.354,3.916 1.209,7.502 2.144,10.877 0.96,3.416 2.084,6.627 3.357,9.709 2.501,6.065 6.917,10.774 10.169,16.07 0.855,1.354 1.584,2.771 2.209,4.334 0.603,1.584 1.125,3.334 1.229,5.291 C 2.666,-6.271 1.604,-2.792 0,0 m -17.337,-16.776 c -4.168,0 -7.545,3.251 -7.545,7.273 0,4.021 3.377,7.273 7.545,7.273 4.166,0 7.542,-3.252 7.542,-7.273 0,-4.022 -3.376,-7.273 -7.542,-7.273" /></g></g></g><g
       id="g250"
       clip-path="url(#clipPath252)"
       transform="matrix(1.7787379,0,0,-1.7787379,-53.822385,86.169081)"><g
         id="g260"
         transform="translate(43.9443,14.8574)"><path
           d="m 0,0 0.6,0.74 -9.623,10.871 -1.5,-6.412 c -8.283,3.492 -14.114,11.696 -14.114,21.237 l -3.492,0 c 0,-14.604 11.864,-26.487 26.448,-26.526 l 0.06,-0.019 0.022,0.019 L 0,0 z"
           style="fill:#333333;fill-opacity:1;fill-rule:nonzero;stroke:none"
           id="path262"
           inkscape:connector-curvature="0" /></g></g></g></svg>