<?xml version="1.0" encoding="UTF-8" standalone="no"?>
<!-- Generator: Adobe Illustrator 17.0.0, SVG Export Plug-In . SVG Version: 6.00 Build 0)  -->

<svg
   xmlns:dc="http://purl.org/dc/elements/1.1/"
   xmlns:cc="http://creativecommons.org/ns#"
   xmlns:rdf="http://www.w3.org/1999/02/22-rdf-syntax-ns#"
   xmlns:svg="http://www.w3.org/2000/svg"
   xmlns="http://www.w3.org/2000/svg"
   xmlns:xlink="http://www.w3.org/1999/xlink"
   xmlns:sodipodi="http://sodipodi.sourceforge.net/DTD/sodipodi-0.dtd"
   xmlns:inkscape="http://www.inkscape.org/namespaces/inkscape"
   version="1.1"
   id="Слой_1"
   x="0px"
   y="0px"
   width="90px"
   height="90px"
   viewBox="0 0 90 90"
   enable-background="new 0 0 90 90"
   xml:space="preserve"
   inkscape:version="0.48.5 r10040"
   sodipodi:docname="speed.svg"
   inkscape:export-filename="/home/bishop/tmp/speed.png"
   inkscape:export-xdpi="512"
   inkscape:export-ydpi="512"><metadata
     id="metadata23"><rdf:RDF><cc:Work
         rdf:about=""><dc:format>image/svg+xml</dc:format><dc:type
           rdf:resource="http://purl.org/dc/dcmitype/StillImage" /><dc:title></dc:title></cc:Work></rdf:RDF></metadata><defs
     id="defs21"><clipPath
       clipPathUnits="userSpaceOnUse"
       id="clipPath942"><path
         inkscape:connector-curvature="0"
         d="M 0,96 96,96 96,0 0,0 0,96 z"
         id="path944" /></clipPath><clipPath
       clipPathUnits="userSpaceOnUse"
       id="clipPath252"><path
         inkscape:connector-curvature="0"
         d="M 0,96 96,96 96,0 0,0 0,96 z"
         id="path254" /></clipPath><clipPath
       clipPathUnits="userSpaceOnUse"
       id="clipPath1128"><path
         inkscape:connector-curvature="0"
         d="M 0,96 96,96 96,0 0,0 0,96 z"
         id="path1130" /></clipPath><clipPath
       clipPathUnits="userSpaceOnUse"
       id="clipPath344"><path
         inkscape:connector-curvature="0"
         d="M 0,96 96,96 96,0 0,0 0,96 z"
         id="path346" /></clipPath></defs><sodipodi:namedview
     pagecolor="#ffffff"
     bordercolor="#666666"
     borderopacity="1"
     objecttolerance="10"
     gridtolerance="10"
     guidetolerance="10"
     inkscape:pageopacity="0"
     inkscape:pageshadow="2"
     inkscape:window-width="1631"
     inkscape:window-height="1026"
     id="namedview19"
     showgrid="false"
     inkscape:zoom="3.7083822"
     inkscape:cx="23.627218"
     inkscape:cy="53.109361"
     inkscape:window-x="49"
     inkscape:window-y="24"
     inkscape:window-maximized="1"
     inkscape:current-layer="g348" /><g
     id="g11"><defs
       id="defs13"><rect
         id="SVGID_1_"
         x="0"
         y="0"
         width="90"
         height="90" /></defs><clipPath
       id="SVGID_2_"><use
         xlink:href="#SVGID_1_"
         overflow="visible"
         id="use17" /></clipPath></g><g
     id="g3099"
     transform="matrix(0.78239613,0,0,0.78239613,31.825587,30.608079)"><g
       transform="matrix(1.5976562,0,0,-1.5976562,-59.848153,95.08249)"
       id="g340"><g
         clip-path="url(#clipPath344)"
         id="g342"><g
           transform="translate(21.7905,45.7842)"
           id="g348"><path
             inkscape:connector-curvature="0"
             id="path350"
             style="fill:#333333;fill-opacity:1;fill-rule:nonzero;stroke:none"
             d="M 0,0 6.709,2.326 0.003,4.472 c 0.463,5.42 2.57,10.375 5.826,14.361 l 5.441,-2.807 -2.74,5.659 c 4.14,3.763 9.483,6.22 15.375,6.734 l 2.304,-6.924 1.941547,6.807844 c 0,0 6.519133,-0.7601 9.484814,-2.051684 2.936644,-1.278937 7.884669,-5.49254 7.884669,-5.49254 l -3.946582,-5.445141 5.97904,2.322302 c 0,0 3.533044,-4.953362 4.547754,-7.7809843 1.074052,-2.9929862 1.305639,-6.613049 1.305639,-6.613049 L 46.45845,1.3104875 53.069911,-0.67679092 c 0,0 -1.444721,-6.59519218 -2.895669,-8.94450148 -1.733027,-2.8060386 -4.264055,-5.4979826 -4.264055,-5.4979826 L 39.969,-12.644 43.469591,-17.580409 C 39.365591,-21.043409 33.87,-23.595 28.201,-24.021 l -1.992,5.987 -1.997,-5.987 C 18.2,-23.566 12.743,-21.09 8.531,-17.26 l 2.727,5.656 -5.426,-2.806 C 2.566,-10.411 0.456,-5.438 0,0 m 26.209,32.216 c -16.548,0 -30,-13.46 -30,-30 0,-16.55 13.452,-30 30,-30 16.541,0 30,13.45 30,30 0,16.54 -13.459,30 -30,30"
             sodipodi:nodetypes="cccccccccscccscccscccccccccccsssc" /><path
             style="fill:#333333;fill-opacity:1;stroke:none"
             d="m 39.370268,42.674781 5.258357,9.572908 26.022129,-20.224453 z"
             id="path5958"
             inkscape:connector-curvature="0"
             transform="matrix(0.79999998,0,0,-0.79999998,-9.7909992,38.215999)"
             sodipodi:nodetypes="cccc" /></g></g></g></g></svg>